<?xml version="1.0" standalone="no"?>
<!DOCTYPE svg PUBLIC "-//W3C//DTD SVG 20010904//EN"
 "http://www.w3.org/TR/2001/REC-SVG-20010904/DTD/svg10.dtd">
<svg version="1.0" xmlns="http://www.w3.org/2000/svg"
 width="512.000000pt" height="512.000000pt" viewBox="0 0 512.000000 512.000000"
 preserveAspectRatio="xMidYMid meet">

<g transform="translate(0.000000,512.000000) scale(0.100000,-0.100000)"
fill="#000000" stroke="none">
<path d="M2440 4784 c-515 -66 -906 -417 -1023 -919 -16 -72 -21 -125 -21
-262 -1 -101 -5 -176 -11 -181 -5 -5 -46 -21 -91 -36 -365 -120 -658 -432
-761 -812 -25 -91 -27 -115 -27 -294 -1 -183 1 -201 27 -294 58 -207 162 -388
304 -528 99 -98 174 -154 282 -211 441 -233 979 -161 1340 179 50 47 87 74
101 74 14 0 50 -26 97 -71 444 -421 1146 -424 1589 -6 144 136 229 259 297
432 96 241 104 543 21 790 -116 351 -399 631 -749 745 -38 12 -76 27 -83 33
-10 8 -11 37 -6 126 33 574 -354 1086 -916 1212 -83 19 -298 32 -370 23z"/>
<path d="M2320 799 c-129 -248 -236 -454 -238 -459 -1 -4 41 3 94 16 140 34
228 44 384 44 156 0 244 -10 384 -44 53 -13 95 -20 94 -15 -10 25 -474 909
-478 909 -3 0 -111 -203 -240 -451z"/>
</g>
</svg>
