<?xml version="1.0" standalone="no"?>
<!DOCTYPE svg PUBLIC "-//W3C//DTD SVG 20010904//EN"
 "http://www.w3.org/TR/2001/REC-SVG-20010904/DTD/svg10.dtd">
<svg version="1.0" xmlns="http://www.w3.org/2000/svg"
 width="513.000000pt" height="513.000000pt" viewBox="0 0 513.000000 513.000000"
 preserveAspectRatio="xMidYMid meet">

<g transform="translate(0.000000,513.000000) scale(0.100000,-0.100000)"
fill="#000000" stroke="none">
<path d="M2360 5124 c-19 -2 -78 -9 -130 -15 -788 -90 -1517 -582 -1919 -1296
-144 -257 -253 -580 -296 -885 -20 -140 -20 -576 0 -716 104 -731 516 -1378
1140 -1788 609 -400 1377 -517 2090 -317 929 260 1646 1043 1819 1987 156 845
-103 1682 -705 2285 -399 398 -879 639 -1449 726 -100 15 -472 28 -550 19z
m381 -604 c930 -95 1664 -829 1759 -1759 50 -498 -98 -1000 -414 -1406 -68
-88 -229 -248 -321 -320 -406 -317 -910 -466 -1405 -415 -468 49 -886 252
-1217 591 -151 156 -266 319 -358 511 -221 460 -254 980 -94 1463 166 501 528
914 1005 1146 324 158 692 224 1045 189z"/>
<path d="M2367 4220 c-506 -64 -940 -333 -1210 -750 -355 -549 -355 -1251 0
-1800 340 -525 951 -817 1571 -749 572 62 1077 422 1322 942 245 521 204 1126
-108 1607 -251 388 -652 654 -1107 735 -106 19 -371 27 -468 15z m293 -530 l0
-120 48 0 c113 0 228 -42 317 -114 45 -37 135 -162 135 -188 0 -9 7 -33 16
-54 24 -56 22 -173 -4 -256 -22 -69 -62 -144 -90 -166 -14 -11 -14 -14 8 -29
48 -32 160 -153 160 -173 0 -5 9 -24 19 -42 25 -43 51 -162 51 -230 -1 -89
-49 -239 -97 -298 -53 -67 -73 -87 -122 -123 -31 -23 -74 -50 -96 -60 -57 -26
-177 -47 -267 -47 l-78 0 0 -120 0 -120 -125 0 -125 0 0 120 0 120 -270 0
-270 0 0 120 0 120 100 0 100 0 0 645 0 645 -100 0 -100 0 0 125 0 125 270 0
270 0 0 120 0 120 125 0 125 0 0 -120z"/>
<path d="M2312 3093 l3 -228 185 -3 c251 -5 319 8 379 70 35 36 44 51 57 101
28 105 -17 208 -116 266 -33 20 -51 21 -273 21 l-237 0 2 -227z"/>
<path d="M2310 2319 l0 -290 273 3 272 3 50 27 c69 38 91 58 130 124 32 53 35
64 35 137 0 67 -4 87 -27 131 -35 64 -65 95 -127 129 l-49 27 -278 0 -279 0 0
-291z"/>
</g>
</svg>
