<?xml version="1.0" standalone="no"?>
<!DOCTYPE svg PUBLIC "-//W3C//DTD SVG 20010904//EN"
 "http://www.w3.org/TR/2001/REC-SVG-20010904/DTD/svg10.dtd">
<svg version="1.0" xmlns="http://www.w3.org/2000/svg"
 width="512.000000pt" height="512.000000pt" viewBox="0 0 512.000000 512.000000"
 preserveAspectRatio="xMidYMid meet">

<g transform="translate(0.000000,512.000000) scale(0.100000,-0.100000)"
fill="#000000" stroke="none">
<path d="M1677 3892 c-498 -503 -899 -917 -928 -957 -252 -347 -289 -828 -93
-1212 167 -326 481 -559 844 -624 103 -19 325 -16 425 6 213 45 391 134 550
273 40 35 79 62 92 62 12 0 49 -24 85 -55 471 -412 1166 -391 1603 50 225 226
338 500 339 815 1 202 -36 365 -120 532 -84 167 -102 187 -1023 1111 -487 488
-888 887 -891 887 -3 0 -400 -400 -883 -888z"/>
<path d="M2368 788 c-103 -243 -186 -443 -185 -444 1 -1 38 7 82 19 69 18 109
20 295 20 186 0 226 -2 295 -20 44 -12 81 -20 82 -19 4 4 -372 886 -377 886
-3 0 -89 -199 -192 -442z"/>
</g>
</svg>
