<?xml version="1.0" standalone="no"?>
<!DOCTYPE svg PUBLIC "-//W3C//DTD SVG 20010904//EN"
 "http://www.w3.org/TR/2001/REC-SVG-20010904/DTD/svg10.dtd">
<svg version="1.0" xmlns="http://www.w3.org/2000/svg"
 width="1200.000000pt" height="1200.000000pt" viewBox="0 0 1200.000000 1200.000000"
 preserveAspectRatio="xMidYMid meet">

<g transform="translate(0.000000,1200.000000) scale(0.100000,-0.100000)"
fill="#000000" stroke="none">
<path d="M1907 10533 c-58 -3 -78 -7 -74 -16 5 -13 657 -1068 962 -1557 94
-151 209 -337 254 -413 50 -84 91 -141 105 -146 11 -5 428 -12 926 -15 498 -4
940 -9 982 -12 l77 -6 3 -595 3 -594 125 -122 c69 -68 328 -311 575 -542 248
-231 641 -598 874 -815 233 -217 436 -405 452 -418 l29 -23 0 1585 0 1586 648
0 c356 0 825 3 1043 7 l395 6 239 376 c534 841 785 1237 918 1451 77 124 147
235 155 248 l14 22 -4313 -2 c-2373 -1 -4349 -4 -4392 -5z"/>
<path d="M5145 6338 c-3 -51 -5 -1218 -3 -2592 l3 -2499 220 209 c121 114 371
352 555 529 414 396 1049 998 1150 1089 41 38 87 81 103 97 l27 29 0 643 -1
642 -421 400 c-231 220 -633 603 -893 850 -260 248 -531 505 -603 573 l-130
122 -7 -92z"/>
</g>
</svg>
